<svg width="308" height="307" viewBox="0 0 308 307" fill="none" xmlns="http://www.w3.org/2000/svg">
<path d="M205 77.698V86.5857H215L205 77.698Z" fill="#FFF200" stroke="black"/>
<path d="M162 259.895V29.2603L191.5 55.4789L192 171.019H242V99.9173L272 126.58V259.895H242V195.904H192V259.895H162Z" fill="#FFF200"/>
<path fill-rule="evenodd" clip-rule="evenodd" d="M32 259.895V126.58L142 29.2603V259.895H112V197.682H62V259.895H32ZM62 126.58V171.019H112V82.5863L62 126.58Z" fill="#FFF200"/>
<path d="M162 259.895V29.2603L191.5 55.4789L192 171.019H242V99.9173L272 126.58V259.895H242V195.904H192V259.895H162Z" stroke="black"/>
<path fill-rule="evenodd" clip-rule="evenodd" d="M32 259.895V126.58L142 29.2603V259.895H112V197.682H62V259.895H32ZM62 126.58V171.019H112V82.5863L62 126.58Z" stroke="black"/>
<path d="M152 9.63182L11.5 130.477H2L152 1L302 130.477H292L152 9.63182Z" fill="#FFF200"/>
<path d="M281 107.171L262.5 91.2025L262 56.2436H242V47.6118H302V56.2436H281V107.171Z" fill="#FFF200"/>
<path d="M152 9.63182L11.5 130.477H2L152 1L302 130.477H292L152 9.63182Z" stroke="black"/>
<path d="M281 107.171L262.5 91.2025L262 56.2436H242V47.6118H302V56.2436H281V107.171Z" stroke="black"/>
<path d="M75 139.912V131.024H85V139.912H75Z" fill="#FFF200"/>
<path d="M90 131.024V139.912H100V131.024H90Z" fill="#FFF200"/>
<path d="M85 144.355H75V153.243H85V144.355Z" fill="#FFF200"/>
<path d="M90 153.243V144.355H100V153.243H90Z" fill="#FFF200"/>
<path d="M75 166.575V157.687H85V166.575H75Z" fill="#FFF200"/>
<path d="M100 166.575H90V157.687H100V166.575Z" fill="#FFF200"/>
<path d="M75 139.912V131.024H85V139.912H75Z" stroke="black"/>
<path d="M90 131.024V139.912H100V131.024H90Z" stroke="black"/>
<path d="M85 144.355H75V153.243H85V144.355Z" stroke="black"/>
<path d="M90 153.243V144.355H100V153.243H90Z" stroke="black"/>
<path d="M75 166.575V157.687H85V166.575H75Z" stroke="black"/>
<path d="M100 166.575H90V157.687H100V166.575Z" stroke="black"/>
<path d="M205 139.912V131.024H215V139.912H205Z" fill="#FFF200"/>
<path d="M220 131.024V139.912H230V131.024H220Z" fill="#FFF200"/>
<path d="M215 144.355H205V153.243H215V144.355Z" fill="#FFF200"/>
<path d="M220 153.243V144.355H230V153.243H220Z" fill="#FFF200"/>
<path d="M205 166.575V157.687H215V166.575H205Z" fill="#FFF200"/>
<path d="M230 166.575H220V157.687H230V166.575Z" fill="#FFF200"/>
<path d="M205 139.912V131.024H215V139.912H205Z" stroke="black"/>
<path d="M220 131.024V139.912H230V131.024H220Z" stroke="black"/>
<path d="M215 144.355H205V153.243H215V144.355Z" stroke="black"/>
<path d="M220 153.243V144.355H230V153.243H220Z" stroke="black"/>
<path d="M205 166.575V157.687H215V166.575H205Z" stroke="black"/>
<path d="M230 166.575H220V157.687H230V166.575Z" stroke="black"/>
<path d="M75 224.345V215.457H85V224.345H75Z" fill="#FFF200"/>
<path d="M90 215.457V224.345H100V215.457H90Z" fill="#FFF200"/>
<path d="M85 228.789H75V237.676H85V228.789Z" fill="#FFF200"/>
<path d="M90 237.676V228.789H100V237.676H90Z" fill="#FFF200"/>
<path d="M75 251.008V242.12H85V251.008H75Z" fill="#FFF200"/>
<path d="M100 251.008H90V242.12H100V251.008Z" fill="#FFF200"/>
<path d="M75 224.345V215.457H85V224.345H75Z" stroke="black"/>
<path d="M90 215.457V224.345H100V215.457H90Z" stroke="black"/>
<path d="M85 228.789H75V237.676H85V228.789Z" stroke="black"/>
<path d="M90 237.676V228.789H100V237.676H90Z" stroke="black"/>
<path d="M75 251.008V242.12H85V251.008H75Z" stroke="black"/>
<path d="M100 251.008H90V242.12H100V251.008Z" stroke="black"/>
<path d="M205 224.345V215.457H215V224.345H205Z" fill="#FFF200"/>
<path d="M220 215.457V224.345H230V215.457H220Z" fill="#FFF200"/>
<path d="M215 228.789H205V237.676H215V228.789Z" fill="#FFF200"/>
<path d="M220 237.676V228.789H230V237.676H220Z" fill="#FFF200"/>
<path d="M205 251.008V242.12H215V251.008H205Z" fill="#FFF200"/>
<path d="M230 251.008H220V242.12H230V251.008Z" fill="#FFF200"/>
<path d="M205 224.345V215.457H215V224.345H205Z" stroke="black"/>
<path d="M220 215.457V224.345H230V215.457H220Z" stroke="black"/>
<path d="M215 228.789H205V237.676H215V228.789Z" stroke="black"/>
<path d="M220 237.676V228.789H230V237.676H220Z" stroke="black"/>
<path d="M205 251.008V242.12H215V251.008H205Z" stroke="black"/>
<path d="M230 251.008H220V242.12H230V251.008Z" stroke="black"/>
<path d="M205 99.9172V91.0295H215V99.9172H205Z" fill="#FFF200"/>
<path d="M220 91.0295V99.9172H230L220 91.0295Z" fill="#FFF200"/>
<path d="M215 104.361H205V113.249H215V104.361Z" fill="#FFF200"/>
<path d="M220 113.249V104.361H230V113.249H220Z" fill="#FFF200"/>
<path d="M205 126.58V117.693H215V126.58H205Z" fill="#FFF200"/>
<path d="M230 126.58H220V117.693H230V126.58Z" fill="#FFF200"/>
<path d="M205 99.9172V91.0295H215V99.9172H205Z" stroke="black"/>
<path d="M220 91.0295V99.9172H230L220 91.0295Z" stroke="black"/>
<path d="M215 104.361H205V113.249H215V104.361Z" stroke="black"/>
<path d="M220 113.249V104.361H230V113.249H220Z" stroke="black"/>
<path d="M205 126.58V117.693H215V126.58H205Z" stroke="black"/>
<path d="M230 126.58H220V117.693H230V126.58Z" stroke="black"/>
<path d="M85 126.58V117.693L75 126.58H85Z" fill="#FFF200"/>
<path d="M90 117.693V126.58H100V117.693H90Z" fill="#FFF200"/>
<path d="M85 126.58V117.693L75 126.58H85Z" stroke="black"/>
<path d="M90 117.693V126.58H100V117.693H90Z" stroke="black"/>
<path d="M100 113.249H90L100 104.361V113.249Z" fill="#FFF200" stroke="black"/>
<path d="M32.48 306.699C31.2 306.592 30.2 306.179 29.48 305.459C28.76 304.739 28.4 303.832 28.4 302.739C28.4 301.886 28.6133 300.992 29.04 300.059L38.08 279.939C38.3733 279.272 38.7467 278.779 39.2 278.459C39.68 278.139 40.2667 277.979 40.96 277.979C41.6533 277.979 42.2267 278.139 42.68 278.459C43.16 278.779 43.5467 279.272 43.84 279.939L52.88 300.059C53.3067 300.992 53.52 301.872 53.52 302.699C53.52 303.819 53.16 304.739 52.44 305.459C51.72 306.179 50.7067 306.592 49.4 306.699L46.04 299.379H35.84L32.48 306.699ZM44.24 294.339L40.12 284.099L39.56 284.339L40.64 287.019L37.6 294.339H44.24ZM57.9297 282.259C57.9297 280.926 58.4364 279.886 59.4497 279.139C60.4897 278.366 61.943 277.979 63.8097 277.979V302.419C63.8097 303.779 63.2897 304.832 62.2497 305.579C61.2364 306.326 59.7964 306.699 57.9297 306.699V282.259ZM69.0047 281.019C69.0047 280.246 69.2847 279.606 69.8447 279.099C70.4314 278.592 71.138 278.339 71.9647 278.339H82.4847C85.4714 278.339 87.7647 279.112 89.3647 280.659C90.9914 282.179 91.8047 284.352 91.8047 287.179C91.8047 288.752 91.4847 290.072 90.8447 291.139C90.2314 292.206 89.2714 293.046 87.9647 293.659V293.819C90.2847 294.859 91.4447 296.819 91.4447 299.699V302.459C91.4447 303.846 90.938 304.899 89.9247 305.619C88.938 306.339 87.4847 306.699 85.5647 306.699V299.899C85.5647 298.566 85.298 297.592 84.7647 296.979C84.258 296.339 83.4714 296.019 82.4047 296.019H74.8047V302.459C74.8047 303.846 74.3114 304.899 73.3247 305.619C72.338 306.339 70.898 306.699 69.0047 306.699V281.019ZM82.1647 291.019C83.3914 291.019 84.3247 290.686 84.9647 290.019C85.6047 289.352 85.9247 288.392 85.9247 287.139C85.9247 285.832 85.618 284.872 85.0047 284.259C84.418 283.646 83.4714 283.339 82.1647 283.339H74.8047V291.019H82.1647ZM106.114 282.219C106.114 280.832 106.607 279.779 107.594 279.059C108.607 278.339 110.074 277.979 111.994 277.979V289.699H123.234V282.219C123.234 280.832 123.727 279.779 124.714 279.059C125.727 278.339 127.194 277.979 129.114 277.979V302.459C129.114 303.846 128.607 304.899 127.594 305.619C126.607 306.339 125.154 306.699 123.234 306.699V294.779H111.994V302.459C111.994 303.846 111.487 304.899 110.474 305.619C109.487 306.339 108.034 306.699 106.114 306.699V282.219ZM144.737 306.699C142.55 306.699 140.537 306.272 138.697 305.419C136.857 304.539 135.39 303.366 134.297 301.899C133.23 300.406 132.697 298.806 132.697 297.099V287.579C132.697 285.872 133.23 284.286 134.297 282.819C135.39 281.326 136.857 280.152 138.697 279.299C140.537 278.419 142.55 277.979 144.737 277.979C146.924 277.979 148.937 278.419 150.777 279.299C152.617 280.152 154.07 281.326 155.137 282.819C156.23 284.286 156.777 285.872 156.777 287.579V297.099C156.777 298.806 156.23 300.406 155.137 301.899C154.07 303.366 152.617 304.539 150.777 305.419C148.937 306.272 146.924 306.699 144.737 306.699ZM144.737 301.579C146.55 301.579 148.03 301.152 149.177 300.299C150.324 299.446 150.897 298.339 150.897 296.979V287.699C150.897 286.339 150.324 285.232 149.177 284.379C148.03 283.526 146.55 283.099 144.737 283.099C142.924 283.099 141.444 283.526 140.297 284.379C139.15 285.232 138.577 286.339 138.577 287.699V296.979C138.577 298.339 139.15 299.446 140.297 300.299C141.444 301.152 142.924 301.579 144.737 301.579ZM172.172 306.699C169.879 306.699 167.812 306.246 165.972 305.339C164.159 304.406 162.732 303.112 161.692 301.459C160.679 299.806 160.172 297.952 160.172 295.899V282.219C160.172 280.832 160.665 279.779 161.652 279.059C162.665 278.339 164.132 277.979 166.052 277.979V295.899C166.052 297.632 166.599 299.019 167.692 300.059C168.812 301.072 170.305 301.579 172.172 301.579C174.039 301.579 175.519 301.072 176.612 300.059C177.732 299.019 178.292 297.632 178.292 295.899V282.219C178.292 280.832 178.785 279.779 179.772 279.059C180.785 278.339 182.252 277.979 184.172 277.979V295.899C184.172 297.952 183.652 299.806 182.612 301.459C181.599 303.112 180.172 304.406 178.332 305.339C176.519 306.246 174.465 306.699 172.172 306.699ZM199.7 306.699C195.966 306.699 193.006 306.059 190.82 304.779C188.66 303.499 187.58 301.726 187.58 299.459C187.58 298.472 187.953 297.672 188.7 297.059C189.446 296.446 190.7 296.139 192.46 296.139C192.566 298.086 193.233 299.566 194.46 300.579C195.713 301.566 197.46 302.059 199.7 302.059C201.433 302.059 202.793 301.766 203.78 301.179C204.766 300.566 205.26 299.726 205.26 298.659C205.26 297.939 205.073 297.352 204.7 296.899C204.326 296.446 203.673 296.032 202.74 295.659C201.833 295.286 200.5 294.899 198.74 294.499C196.073 293.886 193.98 293.192 192.46 292.419C190.94 291.646 189.833 290.726 189.14 289.659C188.473 288.592 188.14 287.259 188.14 285.659C188.14 284.139 188.593 282.806 189.5 281.659C190.433 280.486 191.726 279.579 193.38 278.939C195.033 278.299 196.953 277.979 199.14 277.979C201.22 277.979 203.086 278.259 204.74 278.819C206.393 279.352 207.686 280.112 208.62 281.099C209.553 282.086 210.02 283.219 210.02 284.499C210.02 285.486 209.646 286.272 208.9 286.859C208.18 287.419 206.98 287.726 205.3 287.779C205.166 285.992 204.62 284.686 203.66 283.859C202.7 283.032 201.193 282.619 199.14 282.619C197.46 282.619 196.166 282.886 195.26 283.419C194.353 283.952 193.9 284.726 193.9 285.739C193.9 286.432 194.073 287.006 194.42 287.459C194.766 287.886 195.353 288.272 196.18 288.619C197.033 288.966 198.246 289.312 199.82 289.659C202.566 290.272 204.74 290.979 206.34 291.779C207.966 292.552 209.14 293.486 209.86 294.579C210.606 295.672 210.98 297.019 210.98 298.619C210.98 300.246 210.513 301.672 209.58 302.899C208.673 304.126 207.366 305.072 205.66 305.739C203.98 306.379 201.993 306.699 199.7 306.699ZM215.391 282.259C215.391 280.926 215.897 279.886 216.911 279.139C217.951 278.366 219.404 277.979 221.271 277.979V302.419C221.271 303.779 220.751 304.832 219.711 305.579C218.697 306.326 217.257 306.699 215.391 306.699V282.259ZM226.466 282.579C226.466 281.166 226.946 280.046 227.906 279.219C228.866 278.392 230.159 277.979 231.786 277.979L244.626 298.299L245.066 297.939L243.266 294.939V277.979C245.159 277.979 246.599 278.339 247.586 279.059C248.572 279.779 249.066 280.832 249.066 282.219V302.819C249.066 303.486 248.852 304.126 248.426 304.739C248.026 305.326 247.479 305.806 246.786 306.179C246.092 306.526 245.359 306.699 244.586 306.699L230.906 285.059L230.466 285.419L232.266 288.419V302.459C232.266 303.846 231.772 304.899 230.786 305.619C229.799 306.339 228.359 306.699 226.466 306.699V282.579ZM264.903 306.699C262.503 306.699 260.356 306.232 258.463 305.299C256.569 304.366 255.089 303.072 254.023 301.419C252.983 299.739 252.463 297.832 252.463 295.699V288.899C252.463 286.766 252.969 284.872 253.983 283.219C255.023 281.566 256.463 280.286 258.303 279.379C260.169 278.446 262.289 277.979 264.663 277.979C267.036 277.979 269.156 278.339 271.023 279.059C272.889 279.752 274.329 280.726 275.343 281.979C276.383 283.232 276.903 284.672 276.903 286.299C276.903 287.339 276.556 288.166 275.863 288.779C275.169 289.366 274.223 289.659 273.023 289.659C272.329 289.659 271.649 289.566 270.983 289.379C271.063 288.819 271.103 288.152 271.103 287.379C271.103 286.099 270.503 285.059 269.303 284.259C268.103 283.432 266.556 283.019 264.663 283.019C262.796 283.019 261.276 283.566 260.103 284.659C258.929 285.752 258.343 287.166 258.343 288.899V295.699C258.343 297.459 258.943 298.899 260.143 300.019C261.369 301.112 262.956 301.659 264.903 301.659C266.769 301.659 268.289 301.232 269.463 300.379C270.636 299.526 271.223 298.432 271.223 297.099V296.179H268.303C267.209 296.179 266.316 295.752 265.623 294.899C264.956 294.046 264.623 292.939 264.623 291.579H274.343C275.143 291.579 275.796 291.832 276.303 292.339C276.809 292.819 277.063 293.459 277.063 294.259V297.219C277.063 299.059 276.543 300.699 275.503 302.139C274.489 303.579 273.063 304.699 271.223 305.499C269.383 306.299 267.276 306.699 264.903 306.699Z" fill="#FFF200"/>
<path d="M32.48 306.699L32.397 307.696L33.0961 307.754L33.3888 307.116L32.48 306.699ZM29.48 305.459L30.1871 304.752L30.1871 304.752L29.48 305.459ZM29.04 300.059L29.9495 300.475L29.9522 300.469L29.04 300.059ZM38.08 279.939L38.9922 280.349L38.9953 280.342L38.08 279.939ZM39.2 278.459L38.6453 277.627L38.6342 277.634L38.6233 277.642L39.2 278.459ZM42.68 278.459L42.1033 279.276L42.1142 279.284L42.1253 279.291L42.68 278.459ZM43.84 279.939L42.9247 280.342L42.9278 280.349L43.84 279.939ZM52.88 300.059L51.9678 300.469L51.9705 300.475L52.88 300.059ZM52.44 305.459L51.7329 304.752L51.7329 304.752L52.44 305.459ZM49.4 306.699L48.4912 307.116L48.7833 307.753L49.4814 307.696L49.4 306.699ZM46.04 299.379L46.9488 298.962L46.6813 298.379H46.04V299.379ZM35.84 299.379V298.379H35.1987L34.9312 298.962L35.84 299.379ZM44.24 294.339V295.339H45.7203L45.1677 293.966L44.24 294.339ZM40.12 284.099L41.0477 283.726L40.666 282.777L39.7261 283.18L40.12 284.099ZM39.56 284.339L39.1661 283.42L38.2668 283.805L38.6325 284.713L39.56 284.339ZM40.64 287.019L41.5635 287.403L41.7204 287.025L41.5675 286.645L40.64 287.019ZM37.6 294.339L36.6765 293.956L36.1019 295.339H37.6V294.339ZM32.563 305.703C31.4554 305.61 30.6998 305.265 30.1871 304.752L28.7729 306.166C29.7002 307.093 30.9446 307.575 32.397 307.696L32.563 305.703ZM30.1871 304.752C29.6694 304.234 29.4 303.589 29.4 302.739H27.4C27.4 304.076 27.8506 305.244 28.7729 306.166L30.1871 304.752ZM29.4 302.739C29.4 302.055 29.5706 301.304 29.9495 300.475L28.1305 299.643C27.6561 300.681 27.4 301.716 27.4 302.739H29.4ZM29.9522 300.469L38.9922 280.349L37.1678 279.529L28.1278 299.649L29.9522 300.469ZM38.9953 280.342C39.2378 279.791 39.5113 279.463 39.7767 279.276L38.6233 277.642C37.982 278.095 37.5089 278.754 37.1647 279.536L38.9953 280.342ZM39.7547 279.291C40.0397 279.101 40.4237 278.979 40.96 278.979V276.979C40.1097 276.979 39.3203 277.177 38.6453 277.627L39.7547 279.291ZM40.96 278.979C41.4988 278.979 41.8567 279.102 42.1033 279.276L43.2567 277.642C42.5967 277.176 41.8079 276.979 40.96 276.979V278.979ZM42.1253 279.291C42.4097 279.481 42.6881 279.804 42.9247 280.342L44.7553 279.536C44.4052 278.741 43.9103 278.077 43.2347 277.627L42.1253 279.291ZM42.9278 280.349L51.9678 300.469L53.7922 299.649L44.7522 279.529L42.9278 280.349ZM51.9705 300.475C52.3516 301.308 52.52 302.046 52.52 302.699H54.52C54.52 301.699 54.2618 300.677 53.7895 299.643L51.9705 300.475ZM52.52 302.699C52.52 303.583 52.2457 304.239 51.7329 304.752L53.1471 306.166C54.0743 305.239 54.52 304.055 54.52 302.699H52.52ZM51.7329 304.752C51.224 305.261 50.4584 305.609 49.3186 305.702L49.4814 307.696C50.955 307.576 52.216 307.097 53.1471 306.166L51.7329 304.752ZM50.3088 306.282L46.9488 298.962L45.1312 299.796L48.4912 307.116L50.3088 306.282ZM46.04 298.379H35.84V300.379H46.04V298.379ZM34.9312 298.962L31.5712 306.282L33.3888 307.116L36.7488 299.796L34.9312 298.962ZM45.1677 293.966L41.0477 283.726L39.1923 284.472L43.3123 294.712L45.1677 293.966ZM39.7261 283.18L39.1661 283.42L39.9539 285.258L40.5139 285.018L39.7261 283.18ZM38.6325 284.713L39.7125 287.393L41.5675 286.645L40.4875 283.965L38.6325 284.713ZM39.7165 286.636L36.6765 293.956L38.5235 294.723L41.5635 287.403L39.7165 286.636ZM37.6 295.339H44.24V293.339H37.6V295.339ZM59.4497 279.139L60.0429 279.944L60.0464 279.942L59.4497 279.139ZM63.8097 277.979H64.8097V276.979H63.8097V277.979ZM62.2497 305.579L61.6664 304.767L61.6565 304.774L62.2497 305.579ZM57.9297 306.699H56.9297V307.699H57.9297V306.699ZM58.9297 282.259C58.9297 281.221 59.3026 280.49 60.0429 279.944L58.8565 278.334C57.5701 279.282 56.9297 280.63 56.9297 282.259H58.9297ZM60.0464 279.942C60.8527 279.342 62.0667 278.979 63.8097 278.979V276.979C61.8194 276.979 60.1266 277.39 58.853 278.337L60.0464 279.942ZM62.8097 277.979V302.419H64.8097V277.979H62.8097ZM62.8097 302.419C62.8097 303.481 62.4263 304.221 61.6665 304.767L62.8329 306.391C64.1531 305.444 64.8097 304.078 64.8097 302.419H62.8097ZM61.6565 304.774C60.8801 305.346 59.6811 305.699 57.9297 305.699V307.699C59.9116 307.699 61.5926 307.305 62.8429 306.384L61.6565 304.774ZM58.9297 306.699V282.259H56.9297V306.699H58.9297ZM69.8447 279.099L69.1911 278.342L69.1823 278.35L69.1738 278.358L69.8447 279.099ZM89.3647 280.659L88.6697 281.378L88.6758 281.384L88.6819 281.39L89.3647 280.659ZM90.8447 291.139L89.9872 290.625L89.9824 290.633L89.9778 290.641L90.8447 291.139ZM87.9647 293.659L87.5398 292.754L86.9647 293.024V293.659H87.9647ZM87.9647 293.819H86.9647V294.467L87.5556 294.732L87.9647 293.819ZM89.9247 305.619L89.3454 304.804L89.3352 304.811L89.9247 305.619ZM85.5647 306.699H84.5647V307.699H85.5647V306.699ZM84.7647 296.979L83.9806 297.6L83.995 297.618L84.0101 297.635L84.7647 296.979ZM74.8047 296.019V295.019H73.8047V296.019H74.8047ZM73.3247 305.619L72.7352 304.811L73.3247 305.619ZM69.0047 306.699H68.0047V307.699H69.0047V306.699ZM84.9647 290.019L85.6861 290.712L85.6861 290.712L84.9647 290.019ZM85.0047 284.259L84.282 284.95L84.2897 284.958L84.2976 284.966L85.0047 284.259ZM74.8047 283.339V282.339H73.8047V283.339H74.8047ZM74.8047 291.019H73.8047V292.019H74.8047V291.019ZM70.0047 281.019C70.0047 280.521 70.1708 280.153 70.5156 279.841L69.1738 278.358C68.3986 279.059 68.0047 279.971 68.0047 281.019H70.0047ZM70.4983 279.856C70.8907 279.517 71.3607 279.339 71.9647 279.339V277.339C70.9153 277.339 69.972 277.668 69.1911 278.342L70.4983 279.856ZM71.9647 279.339H82.4847V277.339H71.9647V279.339ZM82.4847 279.339C85.303 279.339 87.3126 280.066 88.6697 281.378L90.0597 279.94C88.2167 278.159 85.6397 277.339 82.4847 277.339V279.339ZM88.6819 281.39C90.0548 282.673 90.8047 284.55 90.8047 287.179H92.8047C92.8047 284.155 91.9279 281.686 90.0474 279.928L88.6819 281.39ZM90.8047 287.179C90.8047 288.619 90.5123 289.75 89.9872 290.625L91.7022 291.654C92.4571 290.395 92.8047 288.886 92.8047 287.179H90.8047ZM89.9778 290.641C89.4834 291.5 88.6939 292.212 87.5398 292.754L88.3896 294.564C89.8488 293.879 90.9793 292.911 91.7116 291.638L89.9778 290.641ZM86.9647 293.659V293.819H88.9647V293.659H86.9647ZM87.5556 294.732C88.55 295.177 89.2514 295.797 89.7141 296.578C90.1817 297.368 90.4447 298.392 90.4447 299.699H92.4447C92.4447 298.127 92.1277 296.73 91.4353 295.56C90.7379 294.382 89.6994 293.501 88.3737 292.907L87.5556 294.732ZM90.4447 299.699V302.459H92.4447V299.699H90.4447ZM90.4447 302.459C90.4447 303.565 90.0613 304.295 89.3455 304.804L90.5039 306.434C91.8147 305.503 92.4447 304.126 92.4447 302.459H90.4447ZM89.3352 304.811C88.5925 305.353 87.3855 305.699 85.5647 305.699V307.699C87.5839 307.699 89.2835 307.325 90.5142 306.427L89.3352 304.811ZM86.5647 306.699V299.899H84.5647V306.699H86.5647ZM86.5647 299.899C86.5647 298.469 86.285 297.204 85.5193 296.323L84.0101 297.635C84.311 297.981 84.5647 298.663 84.5647 299.899H86.5647ZM85.5487 296.358C84.7973 295.409 83.6755 295.019 82.4047 295.019V297.019C83.2672 297.019 83.7187 297.269 83.9806 297.6L85.5487 296.358ZM82.4047 295.019H74.8047V297.019H82.4047V295.019ZM73.8047 296.019V302.459H75.8047V296.019H73.8047ZM73.8047 302.459C73.8047 303.576 73.4263 304.307 72.7352 304.811L73.9142 306.427C75.1965 305.491 75.8047 304.115 75.8047 302.459H73.8047ZM72.7352 304.811C71.9906 305.355 70.7951 305.699 69.0047 305.699V307.699C71.0009 307.699 72.6854 307.324 73.9142 306.427L72.7352 304.811ZM70.0047 306.699V281.019H68.0047V306.699H70.0047ZM82.1647 292.019C83.5708 292.019 84.8017 291.633 85.6861 290.712L84.2433 289.327C83.8477 289.739 83.2119 290.019 82.1647 290.019V292.019ZM85.6861 290.712C86.5607 289.801 86.9247 288.557 86.9247 287.139H84.9247C84.9247 288.228 84.6487 288.904 84.2433 289.327L85.6861 290.712ZM86.9247 287.139C86.9247 285.7 86.5892 284.429 85.7118 283.552L84.2976 284.966C84.6468 285.315 84.9247 285.965 84.9247 287.139H86.9247ZM85.7273 283.568C84.871 282.673 83.5993 282.339 82.1647 282.339V284.339C83.3434 284.339 83.965 284.619 84.282 284.95L85.7273 283.568ZM82.1647 282.339H74.8047V284.339H82.1647V282.339ZM73.8047 283.339V291.019H75.8047V283.339H73.8047ZM74.8047 292.019H82.1647V290.019H74.8047V292.019ZM107.594 279.059L107.015 278.244L107.005 278.251L107.594 279.059ZM111.994 277.979H112.994V276.979H111.994V277.979ZM111.994 289.699H110.994V290.699H111.994V289.699ZM123.234 289.699V290.699H124.234V289.699H123.234ZM124.714 279.059L124.135 278.244L124.125 278.251L124.714 279.059ZM129.114 277.979H130.114V276.979H129.114V277.979ZM127.594 305.619L127.015 304.804L127.005 304.811L127.594 305.619ZM123.234 306.699H122.234V307.699H123.234V306.699ZM123.234 294.779H124.234V293.779H123.234V294.779ZM111.994 294.779V293.779H110.994V294.779H111.994ZM110.474 305.619L109.895 304.804L109.885 304.811L110.474 305.619ZM106.114 306.699H105.114V307.699H106.114V306.699ZM107.114 282.219C107.114 281.102 107.492 280.371 108.184 279.867L107.005 278.251C105.722 279.187 105.114 280.563 105.114 282.219H107.114ZM108.173 279.874C108.948 279.324 110.176 278.979 111.994 278.979V276.979C109.972 276.979 108.267 277.354 107.015 278.244L108.173 279.874ZM110.994 277.979V289.699H112.994V277.979H110.994ZM111.994 290.699H123.234V288.699H111.994V290.699ZM124.234 289.699V282.219H122.234V289.699H124.234ZM124.234 282.219C124.234 281.102 124.612 280.371 125.304 279.867L124.125 278.251C122.842 279.187 122.234 280.563 122.234 282.219H124.234ZM125.293 279.874C126.068 279.324 127.296 278.979 129.114 278.979V276.979C127.092 276.979 125.387 277.354 124.135 278.244L125.293 279.874ZM128.114 277.979V302.459H130.114V277.979H128.114ZM128.114 302.459C128.114 303.565 127.731 304.295 127.015 304.804L128.173 306.434C129.484 305.503 130.114 304.126 130.114 302.459H128.114ZM127.005 304.811C126.262 305.353 125.055 305.699 123.234 305.699V307.699C125.253 307.699 126.953 307.325 128.184 306.427L127.005 304.811ZM124.234 306.699V294.779H122.234V306.699H124.234ZM123.234 293.779H111.994V295.779H123.234V293.779ZM110.994 294.779V302.459H112.994V294.779H110.994ZM110.994 302.459C110.994 303.565 110.611 304.295 109.895 304.804L111.053 306.434C112.364 305.503 112.994 304.126 112.994 302.459H110.994ZM109.885 304.811C109.142 305.353 107.935 305.699 106.114 305.699V307.699C108.133 307.699 109.833 307.325 111.064 306.427L109.885 304.811ZM107.114 306.699V282.219H105.114V306.699H107.114ZM138.697 305.419L138.265 306.321L138.276 306.326L138.697 305.419ZM134.297 301.899L133.483 302.48L133.489 302.489L133.495 302.497L134.297 301.899ZM134.297 282.819L133.49 282.228L133.488 282.231L134.297 282.819ZM138.697 279.299L139.118 280.206L139.128 280.201L138.697 279.299ZM150.777 279.299L150.345 280.201L150.356 280.206L150.777 279.299ZM155.137 282.819L154.323 283.4L154.329 283.409L154.335 283.417L155.137 282.819ZM155.137 301.899L154.33 301.308L154.328 301.311L155.137 301.899ZM150.777 305.419L151.198 306.326L151.208 306.321L150.777 305.419ZM149.177 300.299L149.774 301.101L149.774 301.101L149.177 300.299ZM149.177 284.379L149.774 283.577L149.774 283.577L149.177 284.379ZM140.297 284.379L140.894 285.181L140.297 284.379ZM140.297 300.299L140.894 299.497L140.297 300.299ZM144.737 305.699C142.684 305.699 140.816 305.299 139.118 304.512L138.276 306.326C140.258 307.245 142.416 307.699 144.737 307.699V305.699ZM139.128 304.517C137.418 303.699 136.084 302.624 135.099 301.301L133.495 302.497C134.696 304.108 136.296 305.379 138.265 306.321L139.128 304.517ZM135.111 301.318C134.155 299.981 133.697 298.581 133.697 297.099H131.697C131.697 299.03 132.305 300.831 133.483 302.48L135.111 301.318ZM133.697 297.099V287.579H131.697V297.099H133.697ZM133.697 287.579C133.697 286.097 134.155 284.714 135.106 283.407L133.488 282.231C132.305 283.857 131.697 285.647 131.697 287.579H133.697ZM135.104 283.41C136.088 282.066 137.416 280.995 139.118 280.206L138.276 278.392C136.298 279.309 134.693 280.586 133.49 282.228L135.104 283.41ZM139.128 280.201C140.824 279.39 142.689 278.979 144.737 278.979V276.979C142.412 276.979 140.25 277.448 138.265 278.397L139.128 280.201ZM144.737 278.979C146.785 278.979 148.65 279.39 150.345 280.201L151.208 278.397C149.224 277.448 147.062 276.979 144.737 276.979V278.979ZM150.356 280.206C152.056 280.995 153.367 282.062 154.323 283.4L155.951 282.238C154.773 280.589 153.178 279.31 151.198 278.392L150.356 280.206ZM154.335 283.417C155.31 284.724 155.777 286.104 155.777 287.579H157.777C157.777 285.641 157.151 283.848 155.939 282.221L154.335 283.417ZM155.777 287.579V297.099H157.777V287.579H155.777ZM155.777 297.099C155.777 298.575 155.309 299.971 154.33 301.308L155.944 302.49C157.151 300.84 157.777 299.036 157.777 297.099H155.777ZM154.328 301.311C153.371 302.627 152.055 303.7 150.345 304.517L151.208 306.321C153.179 305.379 154.77 304.104 155.946 302.487L154.328 301.311ZM150.356 304.512C148.658 305.299 146.79 305.699 144.737 305.699V307.699C147.057 307.699 149.216 307.245 151.198 306.326L150.356 304.512ZM144.737 302.579C146.707 302.579 148.413 302.114 149.774 301.101L148.58 299.497C147.647 300.191 146.393 300.579 144.737 300.579V302.579ZM149.774 301.101C151.159 300.071 151.897 298.674 151.897 296.979H149.897C149.897 298.005 149.488 298.821 148.58 299.497L149.774 301.101ZM151.897 296.979V287.699H149.897V296.979H151.897ZM151.897 287.699C151.897 286.005 151.159 284.608 149.774 283.577L148.58 285.181C149.488 285.857 149.897 286.674 149.897 287.699H151.897ZM149.774 283.577C148.413 282.564 146.707 282.099 144.737 282.099V284.099C146.393 284.099 147.647 284.487 148.58 285.181L149.774 283.577ZM144.737 282.099C142.767 282.099 141.061 282.564 139.7 283.577L140.894 285.181C141.826 284.487 143.08 284.099 144.737 284.099V282.099ZM139.7 283.577C138.315 284.608 137.577 286.005 137.577 287.699H139.577C139.577 286.674 139.986 285.857 140.894 285.181L139.7 283.577ZM137.577 287.699V296.979H139.577V287.699H137.577ZM137.577 296.979C137.577 298.674 138.315 300.071 139.7 301.101L140.894 299.497C139.986 298.821 139.577 298.005 139.577 296.979H137.577ZM139.7 301.101C141.061 302.114 142.767 302.579 144.737 302.579V300.579C143.08 300.579 141.826 300.191 140.894 299.497L139.7 301.101ZM165.972 305.339L165.514 306.228L165.522 306.232L165.53 306.236L165.972 305.339ZM161.692 301.459L160.839 301.982L160.845 301.992L161.692 301.459ZM161.652 279.059L161.073 278.244L161.062 278.251L161.652 279.059ZM166.052 277.979H167.052V276.979H166.052V277.979ZM167.692 300.059L167.003 300.784L167.012 300.792L167.021 300.801L167.692 300.059ZM176.612 300.059L177.292 300.793L177.292 300.792L176.612 300.059ZM179.772 279.059L179.193 278.244L179.182 278.251L179.772 279.059ZM184.172 277.979H185.172V276.979H184.172V277.979ZM182.612 301.459L181.765 300.927L181.759 300.937L182.612 301.459ZM178.332 305.339L178.779 306.234L178.784 306.231L178.332 305.339ZM172.172 305.699C170.014 305.699 168.101 305.273 166.414 304.442L165.53 306.236C167.523 307.218 169.744 307.699 172.172 307.699V305.699ZM166.43 304.45C164.768 303.595 163.479 302.422 162.538 300.927L160.845 301.992C161.985 303.803 163.549 305.217 165.514 306.228L166.43 304.45ZM162.544 300.937C161.633 299.45 161.172 297.779 161.172 295.899H159.172C159.172 298.126 159.724 300.162 160.839 301.982L162.544 300.937ZM161.172 295.899V282.219H159.172V295.899H161.172ZM161.172 282.219C161.172 281.102 161.55 280.371 162.241 279.867L161.062 278.251C159.78 279.187 159.172 280.563 159.172 282.219H161.172ZM162.231 279.874C163.006 279.324 164.234 278.979 166.052 278.979V276.979C164.03 276.979 162.325 277.354 161.073 278.244L162.231 279.874ZM165.052 277.979V295.899H167.052V277.979H165.052ZM165.052 295.899C165.052 297.862 165.681 299.526 167.003 300.784L168.381 299.335C167.516 298.512 167.052 297.403 167.052 295.899H165.052ZM167.021 300.801C168.366 302.017 170.118 302.579 172.172 302.579V300.579C170.492 300.579 169.258 300.128 168.363 299.318L167.021 300.801ZM172.172 302.579C174.224 302.579 175.97 302.018 177.292 300.793L175.932 299.326C175.067 300.127 173.853 300.579 172.172 300.579V302.579ZM177.292 300.792C178.644 299.536 179.292 297.869 179.292 295.899H177.292C177.292 297.395 176.819 298.502 175.931 299.326L177.292 300.792ZM179.292 295.899V282.219H177.292V295.899H179.292ZM179.292 282.219C179.292 281.102 179.67 280.371 180.361 279.867L179.182 278.251C177.9 279.187 177.292 280.563 177.292 282.219H179.292ZM180.351 279.874C181.126 279.324 182.354 278.979 184.172 278.979V276.979C182.15 276.979 180.445 277.354 179.193 278.244L180.351 279.874ZM183.172 277.979V295.899H185.172V277.979H183.172ZM183.172 295.899C183.172 297.774 182.7 299.441 181.765 300.927L183.458 301.992C184.604 300.17 185.172 298.131 185.172 295.899H183.172ZM181.759 300.937C180.849 302.422 179.566 303.592 177.879 304.447L178.784 306.231C180.778 305.219 182.348 303.803 183.464 301.982L181.759 300.937ZM177.885 304.445C176.227 305.273 174.33 305.699 172.172 305.699V307.699C174.6 307.699 176.81 307.218 178.779 306.234L177.885 304.445ZM190.82 304.779L190.31 305.639L190.315 305.642L190.82 304.779ZM188.7 297.059L189.334 297.832L189.334 297.832L188.7 297.059ZM192.46 296.139L193.458 296.084L193.406 295.139H192.46V296.139ZM194.46 300.579L193.823 301.35L193.832 301.358L193.841 301.365L194.46 300.579ZM203.78 301.179L204.291 302.039L204.299 302.034L204.308 302.028L203.78 301.179ZM202.74 295.659L202.359 296.584L202.368 296.588L202.74 295.659ZM198.74 294.499L198.516 295.474L198.518 295.474L198.74 294.499ZM192.46 292.419L192.913 291.528L192.913 291.528L192.46 292.419ZM189.14 289.659L188.292 290.189L188.296 290.197L188.301 290.204L189.14 289.659ZM189.5 281.659L188.717 281.037L188.715 281.039L189.5 281.659ZM193.38 278.939L193.019 278.007L193.019 278.007L193.38 278.939ZM204.74 278.819L204.419 279.766L204.426 279.769L204.433 279.771L204.74 278.819ZM208.62 281.099L209.346 280.412L209.346 280.412L208.62 281.099ZM208.9 286.859L209.514 287.648L209.518 287.645L208.9 286.859ZM205.3 287.779L204.302 287.854L204.374 288.809L205.331 288.779L205.3 287.779ZM203.66 283.859L203.007 284.617L203.007 284.617L203.66 283.859ZM195.26 283.419L195.767 284.281L195.767 284.281L195.26 283.419ZM194.42 287.459L193.625 288.067L193.634 288.078L193.644 288.09L194.42 287.459ZM196.18 288.619L195.793 289.541L195.803 289.546L196.18 288.619ZM199.82 289.659L200.038 288.683L200.035 288.683L199.82 289.659ZM206.34 291.779L205.892 292.674L205.901 292.678L205.91 292.682L206.34 291.779ZM209.86 294.579L209.025 295.129L209.029 295.136L209.034 295.143L209.86 294.579ZM209.58 302.899L208.784 302.294L208.776 302.305L209.58 302.899ZM205.66 305.739L206.016 306.674L206.024 306.671L205.66 305.739ZM199.7 305.699C196.065 305.699 193.302 305.074 191.325 303.916L190.315 305.642C192.71 307.045 195.867 307.699 199.7 307.699V305.699ZM191.329 303.919C189.434 302.796 188.58 301.329 188.58 299.459H186.58C186.58 302.123 187.885 304.203 190.31 305.639L191.329 303.919ZM188.58 299.459C188.58 298.764 188.825 298.251 189.334 297.832L188.065 296.286C187.081 297.094 186.58 298.181 186.58 299.459H188.58ZM189.334 297.832C189.805 297.445 190.763 297.139 192.46 297.139V295.139C190.636 295.139 189.088 295.446 188.065 296.286L189.334 297.832ZM191.461 296.194C191.579 298.352 192.334 300.12 193.823 301.35L195.097 299.808C194.132 299.012 193.553 297.82 193.458 296.084L191.461 296.194ZM193.841 301.365C195.33 302.537 197.324 303.059 199.7 303.059V301.059C197.595 301.059 196.096 300.595 195.078 299.793L193.841 301.365ZM199.7 303.059C201.528 303.059 203.09 302.753 204.291 302.039L203.269 300.32C202.496 300.779 201.338 301.059 199.7 301.059V303.059ZM204.308 302.028C205.556 301.252 206.26 300.107 206.26 298.659H204.26C204.26 299.345 203.976 299.879 203.252 300.33L204.308 302.028ZM206.26 298.659C206.26 297.761 206.024 296.934 205.472 296.263L203.928 297.535C204.123 297.771 204.26 298.117 204.26 298.659H206.26ZM205.472 296.263C204.941 295.618 204.103 295.128 203.111 294.731L202.368 296.588C203.243 296.937 203.712 297.273 203.928 297.535L205.472 296.263ZM203.12 294.734C202.136 294.329 200.739 293.928 198.961 293.524L198.518 295.474C200.261 295.87 201.53 296.242 202.359 296.584L203.12 294.734ZM198.964 293.525C196.335 292.92 194.33 292.249 192.913 291.528L192.006 293.31C193.629 294.136 195.811 294.852 198.516 295.474L198.964 293.525ZM192.913 291.528C191.498 290.808 190.549 289.992 189.978 289.114L188.301 290.204C189.117 291.46 190.381 292.484 192.006 293.31L192.913 291.528ZM189.988 289.129C189.444 288.259 189.14 287.122 189.14 285.659H187.14C187.14 287.396 187.502 288.926 188.292 290.189L189.988 289.129ZM189.14 285.659C189.14 284.355 189.523 283.242 190.284 282.279L188.715 281.039C187.663 282.37 187.14 283.924 187.14 285.659H189.14ZM190.282 282.282C191.086 281.271 192.222 280.459 193.741 279.872L193.019 278.007C191.23 278.699 189.78 279.701 188.717 281.037L190.282 282.282ZM193.741 279.872C195.255 279.285 197.049 278.979 199.14 278.979V276.979C196.857 276.979 194.811 277.313 193.019 278.007L193.741 279.872ZM199.14 278.979C201.131 278.979 202.887 279.247 204.419 279.766L205.06 277.872C203.286 277.271 201.308 276.979 199.14 276.979V278.979ZM204.433 279.771C205.97 280.267 207.103 280.951 207.893 281.786L209.346 280.412C208.27 279.274 206.816 278.438 205.047 277.867L204.433 279.771ZM207.893 281.786C208.663 282.6 209.02 283.491 209.02 284.499H211.02C211.02 282.947 210.443 281.572 209.346 280.412L207.893 281.786ZM209.02 284.499C209.02 285.193 208.776 285.684 208.282 286.073L209.518 287.645C210.516 286.861 211.02 285.779 211.02 284.499H209.02ZM208.286 286.07C207.823 286.429 206.891 286.728 205.268 286.78L205.331 288.779C207.068 288.723 208.536 288.409 209.514 287.648L208.286 286.07ZM206.297 287.705C206.152 285.764 205.544 284.162 204.312 283.101L203.007 284.617C203.695 285.209 204.181 286.221 204.302 287.854L206.297 287.705ZM204.312 283.101C203.087 282.047 201.293 281.619 199.14 281.619V283.619C201.093 283.619 202.312 284.018 203.007 284.617L204.312 283.101ZM199.14 281.619C197.378 281.619 195.879 281.895 194.753 282.557L195.767 284.281C196.454 283.877 197.542 283.619 199.14 283.619V281.619ZM194.753 282.557C193.555 283.262 192.9 284.355 192.9 285.739H194.9C194.9 285.096 195.151 284.643 195.767 284.281L194.753 282.557ZM192.9 285.739C192.9 286.604 193.119 287.404 193.625 288.067L195.214 286.852C195.027 286.608 194.9 286.261 194.9 285.739H192.9ZM193.644 288.09C194.14 288.7 194.9 289.167 195.793 289.541L196.566 287.697C195.806 287.378 195.393 287.071 195.196 286.829L193.644 288.09ZM195.803 289.546C196.734 289.923 198.01 290.284 199.605 290.636L200.035 288.683C198.482 288.34 197.332 288.008 196.556 287.693L195.803 289.546ZM199.602 290.635C202.309 291.24 204.394 291.925 205.892 292.674L206.787 290.885C205.085 290.034 202.824 289.305 200.038 288.683L199.602 290.635ZM205.91 292.682C207.432 293.405 208.436 294.235 209.025 295.129L210.695 294.029C209.843 292.736 208.501 291.699 206.769 290.876L205.91 292.682ZM209.034 295.143C209.645 296.038 209.98 297.178 209.98 298.619H211.98C211.98 296.86 211.567 295.307 210.685 294.015L209.034 295.143ZM209.98 298.619C209.98 300.04 209.577 301.251 208.784 302.294L210.376 303.505C211.449 302.094 211.98 300.452 211.98 298.619H209.98ZM208.776 302.305C208.002 303.352 206.863 304.196 205.296 304.808L206.024 306.671C207.87 305.949 209.344 304.9 210.384 303.494L208.776 302.305ZM205.304 304.805C203.764 305.391 201.903 305.699 199.7 305.699V307.699C202.083 307.699 204.195 307.367 206.016 306.674L205.304 304.805ZM216.911 279.139L217.504 279.944L217.507 279.942L216.911 279.139ZM221.271 277.979H222.271V276.979H221.271V277.979ZM219.711 305.579L219.127 304.767L219.117 304.774L219.711 305.579ZM215.391 306.699H214.391V307.699H215.391V306.699ZM216.391 282.259C216.391 281.221 216.764 280.49 217.504 279.944L216.317 278.334C215.031 279.282 214.391 280.63 214.391 282.259H216.391ZM217.507 279.942C218.314 279.342 219.528 278.979 221.271 278.979V276.979C219.28 276.979 217.588 277.39 216.314 278.337L217.507 279.942ZM220.271 277.979V302.419H222.271V277.979H220.271ZM220.271 302.419C220.271 303.481 219.887 304.221 219.127 304.767L220.294 306.391C221.614 305.444 222.271 304.078 222.271 302.419H220.271ZM219.117 304.774C218.341 305.346 217.142 305.699 215.391 305.699V307.699C217.373 307.699 219.054 307.305 220.304 306.384L219.117 304.774ZM216.391 306.699V282.259H214.391V306.699H216.391ZM227.906 279.219L228.558 279.977L228.558 279.977L227.906 279.219ZM231.786 277.979L232.631 277.445L232.337 276.979H231.786V277.979ZM244.626 298.299L243.78 298.833L244.384 299.789L245.259 299.073L244.626 298.299ZM245.066 297.939L245.699 298.713L246.368 298.166L245.923 297.425L245.066 297.939ZM243.266 294.939H242.266V295.216L242.408 295.454L243.266 294.939ZM243.266 277.979V276.979H242.266V277.979H243.266ZM248.426 304.739L247.605 304.168L247.599 304.176L248.426 304.739ZM246.786 306.179L247.233 307.074L247.246 307.067L247.26 307.06L246.786 306.179ZM244.586 306.699L243.74 307.233L244.035 307.699H244.586V306.699ZM230.906 285.059L231.751 284.525L231.147 283.57L230.272 284.285L230.906 285.059ZM230.466 285.419L229.832 284.645L229.163 285.192L229.608 285.934L230.466 285.419ZM232.266 288.419H233.266V288.142L233.123 287.905L232.266 288.419ZM230.786 305.619L230.196 304.811L230.786 305.619ZM226.466 306.699H225.466V307.699H226.466V306.699ZM227.466 282.579C227.466 281.419 227.846 280.59 228.558 279.977L227.253 278.461C226.045 279.501 225.466 280.912 225.466 282.579H227.466ZM228.558 279.977C229.29 279.347 230.329 278.979 231.786 278.979V276.979C229.989 276.979 228.441 277.438 227.253 278.461L228.558 279.977ZM230.94 278.513L243.78 298.833L245.471 297.765L232.631 277.445L230.94 278.513ZM245.259 299.073L245.699 298.713L244.432 297.165L243.992 297.525L245.259 299.073ZM245.923 297.425L244.123 294.425L242.408 295.454L244.208 298.454L245.923 297.425ZM244.266 294.939V277.979H242.266V294.939H244.266ZM243.266 278.979C245.056 278.979 246.252 279.324 246.996 279.867L248.175 278.251C246.946 277.355 245.262 276.979 243.266 276.979V278.979ZM246.996 279.867C247.687 280.371 248.066 281.102 248.066 282.219H250.066C250.066 280.563 249.457 279.187 248.175 278.251L246.996 279.867ZM248.066 282.219V302.819H250.066V282.219H248.066ZM248.066 302.819C248.066 303.257 247.929 303.701 247.605 304.168L249.247 305.31C249.775 304.55 250.066 303.714 250.066 302.819H248.066ZM247.599 304.176C247.299 304.616 246.879 304.993 246.312 305.299L247.26 307.06C248.079 306.619 248.752 306.035 249.252 305.302L247.599 304.176ZM246.338 305.285C245.784 305.562 245.203 305.699 244.586 305.699V307.699C245.515 307.699 246.401 307.489 247.233 307.074L246.338 305.285ZM245.431 306.165L231.751 284.525L230.06 285.593L243.74 307.233L245.431 306.165ZM230.272 284.285L229.832 284.645L231.099 286.193L231.539 285.833L230.272 284.285ZM229.608 285.934L231.408 288.934L233.123 287.905L231.323 284.905L229.608 285.934ZM231.266 288.419V302.459H233.266V288.419H231.266ZM231.266 302.459C231.266 303.576 230.887 304.307 230.196 304.811L231.375 306.427C232.657 305.491 233.266 304.115 233.266 302.459H231.266ZM230.196 304.811C229.452 305.355 228.256 305.699 226.466 305.699V307.699C228.462 307.699 230.146 307.324 231.375 306.427L230.196 304.811ZM227.466 306.699V282.579H225.466V306.699H227.466ZM258.463 305.299L258.02 306.196L258.02 306.196L258.463 305.299ZM254.023 301.419L253.172 301.945L253.177 301.953L253.182 301.961L254.023 301.419ZM253.983 283.219L253.136 282.687L253.13 282.697L253.983 283.219ZM258.303 279.379L258.745 280.276L258.75 280.274L258.303 279.379ZM271.023 279.059L270.663 279.992L270.674 279.997L271.023 279.059ZM275.343 281.979L274.565 282.608L274.573 282.618L275.343 281.979ZM275.863 288.779L276.508 289.542L276.517 289.535L276.525 289.528L275.863 288.779ZM270.983 289.379L269.993 289.238L269.869 290.106L270.713 290.342L270.983 289.379ZM269.303 284.259L268.735 285.083L268.741 285.087L268.748 285.091L269.303 284.259ZM260.103 284.659L259.421 283.928L259.421 283.928L260.103 284.659ZM260.143 300.019L259.46 300.75L259.469 300.758L259.477 300.766L260.143 300.019ZM269.463 300.379L270.051 301.188L270.051 301.188L269.463 300.379ZM271.223 296.179H272.223V295.179H271.223V296.179ZM265.623 294.899L264.834 295.515L264.84 295.522L264.846 295.53L265.623 294.899ZM264.623 291.579V290.579H263.623V291.579H264.623ZM276.303 292.339L275.595 293.046L275.605 293.056L275.615 293.065L276.303 292.339ZM275.503 302.139L274.692 301.554L274.685 301.564L275.503 302.139ZM271.223 305.499L270.824 304.582L270.824 304.582L271.223 305.499ZM264.903 305.699C262.635 305.699 260.643 305.259 258.905 304.402L258.02 306.196C260.069 307.206 262.37 307.699 264.903 307.699V305.699ZM258.905 304.402C257.161 303.543 255.824 302.367 254.863 300.877L253.182 301.961C254.354 303.778 255.977 305.189 258.02 306.196L258.905 304.402ZM254.873 300.893C253.938 299.383 253.463 297.662 253.463 295.699H251.463C251.463 298.003 252.027 300.095 253.172 301.945L254.873 300.893ZM253.463 295.699V288.899H251.463V295.699H253.463ZM253.463 288.899C253.463 286.931 253.928 285.222 254.835 283.742L253.13 282.697C252.011 284.523 251.463 286.6 251.463 288.899H253.463ZM254.829 283.752C255.765 282.263 257.062 281.105 258.745 280.276L257.86 278.482C255.863 279.466 254.28 280.869 253.136 282.687L254.829 283.752ZM258.75 280.274C260.46 279.419 262.423 278.979 264.663 278.979V276.979C262.155 276.979 259.879 277.473 257.855 278.485L258.75 280.274ZM264.663 278.979C266.935 278.979 268.93 279.324 270.663 279.992L271.382 278.126C269.382 277.354 267.136 276.979 264.663 276.979V278.979ZM270.674 279.997C272.412 280.642 273.688 281.523 274.565 282.608L276.12 281.35C274.97 279.928 273.366 278.863 271.371 278.122L270.674 279.997ZM274.573 282.618C275.464 283.692 275.903 284.906 275.903 286.299H277.903C277.903 284.439 277.301 282.773 276.112 281.341L274.573 282.618ZM275.903 286.299C275.903 287.092 275.651 287.631 275.2 288.03L276.525 289.528C277.461 288.7 277.903 287.586 277.903 286.299H275.903ZM275.217 288.016C274.755 288.406 274.063 288.659 273.023 288.659V290.659C274.382 290.659 275.583 290.325 276.508 289.542L275.217 288.016ZM273.023 288.659C272.42 288.659 271.831 288.578 271.252 288.416L270.713 290.342C271.467 290.553 272.238 290.659 273.023 290.659V288.659ZM271.972 289.521C272.061 288.9 272.103 288.184 272.103 287.379H270.103C270.103 288.121 270.064 288.738 269.993 289.238L271.972 289.521ZM272.103 287.379C272.103 285.718 271.294 284.385 269.857 283.427L268.748 285.091C269.711 285.733 270.103 286.48 270.103 287.379H272.103ZM269.87 283.436C268.459 282.464 266.698 282.019 264.663 282.019V284.019C266.413 284.019 267.746 284.401 268.735 285.083L269.87 283.436ZM264.663 282.019C262.587 282.019 260.809 282.634 259.421 283.928L260.784 285.391C261.742 284.498 263.005 284.019 264.663 284.019V282.019ZM259.421 283.928C258.027 285.226 257.343 286.913 257.343 288.899H259.343C259.343 287.418 259.832 286.278 260.784 285.391L259.421 283.928ZM257.343 288.899V295.699H259.343V288.899H257.343ZM257.343 295.699C257.343 297.714 258.042 299.426 259.46 300.75L260.825 299.288C259.843 298.372 259.343 297.204 259.343 295.699H257.343ZM259.477 300.766C260.92 302.051 262.758 302.659 264.903 302.659V300.659C263.153 300.659 261.819 300.173 260.808 299.273L259.477 300.766ZM264.903 302.659C266.92 302.659 268.663 302.197 270.051 301.188L268.874 299.57C267.915 300.268 266.619 300.659 264.903 300.659V302.659ZM270.051 301.188C271.456 300.166 272.223 298.784 272.223 297.099H270.223C270.223 298.081 269.815 298.886 268.874 299.57L270.051 301.188ZM272.223 297.099V296.179H270.223V297.099H272.223ZM271.223 295.179H268.303V297.179H271.223V295.179ZM268.303 295.179C267.512 295.179 266.903 294.89 266.399 294.269L264.846 295.53C265.728 296.615 266.906 297.179 268.303 297.179V295.179ZM266.411 294.283C265.913 293.647 265.623 292.774 265.623 291.579H263.623C263.623 293.104 263.998 294.445 264.834 295.515L266.411 294.283ZM264.623 292.579H274.343V290.579H264.623V292.579ZM274.343 292.579C274.911 292.579 275.299 292.75 275.595 293.046L277.01 291.632C276.293 290.915 275.374 290.579 274.343 290.579V292.579ZM275.615 293.065C275.892 293.328 276.063 293.69 276.063 294.259H278.063C278.063 293.228 277.726 292.31 276.99 291.613L275.615 293.065ZM276.063 294.259V297.219H278.063V294.259H276.063ZM276.063 297.219C276.063 298.857 275.604 300.29 274.692 301.554L276.313 302.725C277.481 301.108 278.063 299.261 278.063 297.219H276.063ZM274.685 301.564C273.791 302.833 272.519 303.845 270.824 304.582L271.621 306.416C273.606 305.553 275.187 304.325 276.32 302.715L274.685 301.564ZM270.824 304.582C269.13 305.318 267.163 305.699 264.903 305.699V307.699C267.388 307.699 269.635 307.28 271.621 306.416L270.824 304.582Z" fill="black"/>
</svg>
